<svg xmlns="http://www.w3.org/2000/svg" viewBox="0 0 1856.1 1857.65">
      <g fill="currentColor">
        <path fill="currentColor" d="M1390.69,993.46c-6.5,0-11.43,0-16.35,0-279.55,0-559.11,0-838.66,0-32.03,0-63.07,4.85-92.04,19.19-63.18,31.27-101.63,81.36-113.04,151.23-2.29,14.05-2.59,28.53-2.61,42.82-.19,122.66-.11,245.32-.11,367.98,0,4.95,0,9.89,0,15.93-4.23,.34-7.41,.82-10.59,.82-40.32,.04-80.64-.36-120.95,.13-33.03,.4-64.45-24.54-66.14-64.93-.17-3.99-.08-8-.08-12,0-299.32,.04-598.64-.2-897.96,0-9.3,2.57-15.01,10.28-20.54,134.81-96.7,269.4-193.72,404.01-290.7,68.93-49.66,137.82-99.36,206.74-149.03,2.96-2.14,6-4.17,9.53-6.61,2.73,1.82,5.5,3.54,8.15,5.44,179.78,129.46,359.56,258.93,539.32,388.41,24.87,17.91,49.56,36.08,74.63,53.7,5.79,4.07,8.25,8.29,8.24,15.47-.2,122.99-.14,245.99-.14,368.98v11.67Z"></path>
        <path fill="currentColor" d="M1722.98,1201.07c0-5-.07-10.01-.4-14.99-2.66-40.23-20.1-72.75-51.85-97.35-25.24-19.56-54.39-26.83-86.03-26.82-349.87,.13-699.74,.08-1049.61,.09-4.99,0-10.01-.04-14.98,.34-40.04,3.06-72.76,19.98-97.19,52.1-18.62,24.47-26.99,52.4-26.99,83.01,.01,174.33,0,348.66,.01,522.99,0,2.67-.06,5.34,.11,8,3.39,54.73,29.38,94.42,79.12,117.88,18.68,8.82,38.68,11.28,59.33,11.26,174.93-.22,349.87-.12,524.8-.12,161.61,0,323.21,0,484.82-.01,16.66,0,33.35,.55,49.97-.2,53.23-2.41,92.04-27.7,116.19-75.15,10.2-20.06,12.78-41.77,12.77-64.04-.1-172.33-.05-344.66-.07-516.99ZM695.16,1717.91c-.01,8.58-.64,17.44-2.8,25.69-7.13,27.33-30.91,47.1-59.16,48.79-18.26,1.09-36.63,.58-54.94,.62-17.33,.04-34.65-.14-51.97-.24-33.56-.2-65.77-28.6-65.65-69.2,.23-75.42,.13-150.83,.1-226.25-.01-12.57-.01-25.14-.01-37.71v-68.33c0-24.52,.01-49.04,.01-73.56,0-40.02-.02-80.04-.07-120.06-.02-13.66,2.62-26.49,9.78-38.17,12.84-20.93,31.71-32.13,56.17-32.5,33.31-.5,66.64,.36,99.94-.3,31.37-.62,67.02,22.48,68.67,67.31,.1,2.66,.04,5.33,.04,8,0,171.97,.04,343.94-.11,515.91Zm298.67-258.35c0,86.64,.07,173.29-.11,259.93-.01,8.25-.47,16.79-2.57,24.7-7.1,26.79-30.91,46.47-58.58,48.16-17.27,1.06-34.63,.66-51.95,.65-19.65,0-39.37,.69-58.93-.7-27.37-1.95-46.47-16.8-56.95-42.06-2.62-6.32-3.55-13.46-4.45-20.33-.77-5.92-.49-11.98-.49-17.98-.02-169.62,.01-339.25-.08-508.87,0-15.9,1.54-31.22,10.52-44.99,12.76-19.55,30.78-30.53,53.98-30.98,35.3-.68,70.63-.68,105.93-.03,34.31,.63,62.42,29.14,63.47,63.57,.52,16.64,.2,33.32,.2,49.98,.02,72.98,0,145.97,0,218.95Zm277.61,315.26c-11.36,10.52-24.71,17.38-40.33,17.58-36.3,.46-72.65,1.3-108.91-.01-36.62-1.32-63.25-30.71-63.55-67.88-.3-37.33-.07-74.66-.08-111.98v-153.98c0-86.65,.04-173.3-.03-259.95-.01-11.85,1.66-23.31,7.06-33.9,12.27-24.07,32.08-37.18,59.05-37.68,33.97-.62,67.96-.43,101.94-.08,36.15,.37,64.32,27.82,66.45,64.12,.16,2.66,.14,5.33,.14,7.99,0,173.97-.03,347.95,.04,521.92,.01,21.01-6.13,39.35-21.78,53.85Z"></path>
        <path fill="currentColor" d="M1522.06,548.82c-9.77,15.26-18.87,29.46-28.34,44.26-3.8-2.59-6.82-4.57-9.75-6.68-227.59-163.88-455.18-327.76-682.75-491.68-8.74-6.29-17.83-11.61-28.56-13.66-17.65-3.37-33.75,.43-48.31,10.69-15.79,11.13-31.42,22.48-47.1,33.77-123.54,88.93-247.08,177.85-370.61,266.8-89.19,64.23-178.35,128.51-267.53,192.76-2.95,2.13-5.97,4.17-8.84,6.18-5.97-4.5-22.94-28.61-30.27-43.04C253.24,365.69,506.61,183.06,760.57,0c253.59,182.76,506.97,365.38,761.48,548.82Z"></path>
        <path fill="currentColor" d="M1791.9,1624.94v-329.33c2.3-.44,4.49-1.25,6.67-1.21,10.3,.18,20.73-.35,30.85,1.15,15.28,2.27,25.14,14.02,26.48,29.48,.26,2.98,.19,5.99,.19,8.99,0,83.62,.01,167.24,0,250.86,0,3.33,.09,6.68-.23,9.99-1.66,17.08-14.64,29.47-31.76,30.01-10.29,.32-20.6,.06-32.2,.06Z"></path>
        <path fill="currentColor" d="M296.12,248.82c0-4.43,0-7.68,0-10.94,0-48.3,0-96.6,.01-144.89,0-2.66-.08-5.35,.25-7.98,1.52-12.1,8-18.55,20.06-19.62,5.29-.47,10.64-.32,15.97-.33,21.64-.03,43.29-.03,64.93,0,3.33,0,6.67-.04,9.98,.27,12.74,1.21,19.3,7.83,19.82,20.55,.38,9.31,.16,18.65,.17,27.98,.01,11.99-.05,23.98,0,35.97,.02,3.85-.77,6.92-4.24,9.41-41.15,29.44-82.21,59.02-123.31,88.53-.5,.36-1.25,.38-3.64,1.05Z"></path>
        <path d="M460.73,1459.61v-68.33c0,22.78-.01,45.55-.01,68.33,0,12.57,.01,25.14,.02,37.71-.01-12.57-.01-25.14-.01-37.71Z"></path>
        <path fill="currentColor" d="M1223.58,1724.25h-95.77v-528.42c15.67-2.04,31.53-.69,47.29-.94,15.93-.24,31.87-.05,47.4-.05,2.52,8.27,3.33,514.13,1.08,529.41Z"></path>
        <path fill="currentColor" d="M626.2,1196.21v528.02h-96.28v-527.4c8.13-2.4,86.29-2.85,96.28-.62Z"></path>
        <path fill="currentColor" d="M924.4,1724.16h-95.87v-528.85c32.5-.77,64.26-.71,95.72-.05,2.47,9.36,2.49,519.75,.15,528.9Z"></path>
      </g>
    </svg>